<?xml version="1.0" encoding="iso-8859-1"?>
<!-- Generator: Adobe Illustrator 19.0.0, SVG Export Plug-In . SVG Version: 6.00 Build 0)  -->
<svg version="1.1" id="Layer_1" xmlns="http://www.w3.org/2000/svg" xmlns:xlink="http://www.w3.org/1999/xlink" x="0px" y="0px"
	 viewBox="0 0 512 512" style="enable-background:new 0 0 512 512;" xml:space="preserve">
<path style="fill:#2C2F38;" d="M158.897,0h194.207c19.5,0,35.31,15.81,35.31,35.31V476.69c0,19.5-15.81,35.31-35.31,35.31H158.897
	c-19.5,0-35.31-15.81-35.31-35.31V35.31C123.586,15.81,139.396,0,158.897,0z"/>
<rect x="123.586" y="70.621" style="fill:#3F5C6C;" width="264.828" height="335.448"/>
<g>
	<circle style="fill:#464F5D;" cx="256" cy="459.034" r="17.655"/>
	<path style="fill:#464F5D;" d="M220.69,44.138c-4.829,0.044-8.783-3.831-8.828-8.66c-0.009-1.209,0.23-2.41,0.706-3.513
		c0.424-1.077,1.059-2.074,1.854-2.913c0.856-0.777,1.845-1.404,2.913-1.854c3.284-1.386,7.089-0.653,9.622,1.854
		c0.794,0.847,1.43,1.836,1.854,2.913c1.898,4.44-0.159,9.578-4.59,11.476C223.1,43.908,221.899,44.147,220.69,44.138z"/>
	<path style="fill:#464F5D;" d="M291.31,44.138H256c-4.873,0-8.828-3.955-8.828-8.828s3.955-8.828,8.828-8.828h35.31
		c4.873,0,8.828,3.955,8.828,8.828S296.183,44.138,291.31,44.138z"/>
</g>
<g>
	<path style="fill:#547580;" d="M158.897,132.414c-4.873,0-8.828-3.955-8.828-8.828c0-2.339,0.927-4.582,2.586-6.241l17.655-17.655
		c3.478-3.416,9.066-3.363,12.482,0.115c3.372,3.434,3.372,8.934,0,12.367l-17.655,17.655
		C163.487,131.487,161.236,132.414,158.897,132.414z"/>
	<path style="fill:#547580;" d="M176.552,167.724c-4.873,0-8.828-3.955-8.828-8.828c0-2.339,0.927-4.581,2.586-6.241l52.966-52.966
		c3.478-3.416,9.066-3.363,12.482,0.115c3.372,3.434,3.372,8.934,0,12.367l-52.966,52.966
		C181.142,166.797,178.891,167.724,176.552,167.724z"/>
</g>
<path style="fill:#9FC9D3;" d="M271.272,215.834c12.147,5.447,19.977,17.496,20.039,30.808v27.012H220.69v-27.012
	c0.062-13.312,7.892-25.362,20.039-30.808"/>
<g>
	<path style="fill:#FFFFFF;" d="M300.138,317.793h-88.276c-4.873,0-8.828-3.955-8.828-8.828s3.955-8.828,8.828-8.828h88.276
		c4.873,0,8.828,3.955,8.828,8.828S305.011,317.793,300.138,317.793z"/>
	<path style="fill:#FFFFFF;" d="M300.138,353.103h-88.276c-4.873,0-8.828-3.955-8.828-8.828c0-4.873,3.955-8.828,8.828-8.828h88.276
		c4.873,0,8.828,3.955,8.828,8.828C308.966,349.149,305.011,353.103,300.138,353.103z"/>
</g>
<path style="fill:#2FA8CC;" d="M282.483,194.207c0,14.627-11.855,26.483-26.483,26.483c-14.627,0-26.483-11.855-26.483-26.483
	s11.855-26.483,26.483-26.483c14.583-0.044,26.439,11.75,26.483,26.333C282.483,194.101,282.483,194.154,282.483,194.207z"/>
<g>
</g>
<g>
</g>
<g>
</g>
<g>
</g>
<g>
</g>
<g>
</g>
<g>
</g>
<g>
</g>
<g>
</g>
<g>
</g>
<g>
</g>
<g>
</g>
<g>
</g>
<g>
</g>
<g>
</g>
</svg>
