<?xml version="1.0" encoding="iso-8859-1"?>
<!-- Generator: Adobe Illustrator 19.0.0, SVG Export Plug-In . SVG Version: 6.00 Build 0)  -->
<svg version="1.1" id="Layer_1" xmlns="http://www.w3.org/2000/svg" xmlns:xlink="http://www.w3.org/1999/xlink" x="0px" y="0px"
	 viewBox="0 0 512 512" style="enable-background:new 0 0 512 512;" xml:space="preserve">
<path style="fill:#EFE8C5;" d="M484.174,267.13v166.957h-22.261c-24.067,0-44.563-15.279-52.325-36.665l0,0h-16.313
	c-35.859,0-64.927-29.313-64.927-65.473v-54.998c0-36.161,29.069-65.474,64.927-65.474h12.986l0,0h22.261
	C459.257,211.478,484.174,236.395,484.174,267.13z"/>
<path style="fill:#D6CEAE;" d="M422.957,143.842v67.636h5.565c30.736,0,55.652,24.917,55.652,55.652v166.957h-22.261
	c-15.172,0-28.918-6.078-38.957-15.923v71.575c0,12.275-9.986,22.261-22.261,22.261h-11.13c-6.147,0-11.13-4.983-11.13-11.13
	c0-6.147,4.983-11.13,11.13-11.13h11.13V144.696h-61.217h-134.68H95.724H39.748c-6.585,0-11.922-5.337-11.922-11.922
	c0-5.933,4.362-10.962,10.236-11.802l60.768-8.681l94.831-13.547l145.818-20.832v-5.565C339.478,32.392,371.87,0,411.826,0l0,0
	c39.956,0,72.348,32.391,72.348,72.348l0,0C484.174,108.52,457.628,138.488,422.957,143.842z"/>
<path style="fill:#EAB250;" d="M95.724,144.696H39.748c-6.585,0-11.922-5.337-11.922-11.922c0-5.933,4.362-10.962,10.236-11.802
	l60.768-8.681l94.831-13.547l145.818-20.832v66.783h-134.68H95.724z"/>
<path style="fill:#D19742;" d="M204.798,122.435h134.68v22.261h-134.68H95.724H39.748c-6.585,0-11.922-5.337-11.922-11.922
	c0-5.032,3.143-9.403,7.68-11.13c1.32,0.503,2.746,0.791,4.242,0.791h55.977H204.798z"/>
<path style="fill:#665A4B;" d="M428.522,54.539c0,6.147-4.983,11.13-11.13,11.13c-6.147,0-11.13-4.983-11.13-11.13
	s4.983-11.13,11.13-11.13C423.539,43.409,428.522,48.392,428.522,54.539z"/>
<g>
	<path style="fill:#D15D39;" d="M428.522,500.87L428.522,500.87c0,6.147-4.983,11.13-11.13,11.13H372.87
		c-6.147,0-11.13-4.983-11.13-11.13l0,0c0-6.147,4.983-11.13,11.13-11.13h44.522C423.539,489.739,428.522,494.722,428.522,500.87z"
		/>
	<path style="fill:#D15D39;" d="M187.684,174.757l68.089,196.453C279.778,440.472,226.175,512,150.261,512l0,0
		c-75.913,0-129.517-71.527-105.512-140.79l68.089-196.453H187.684z"/>
</g>
<path style="fill:#F77E41;" d="M255.534,370.522c-19.741,18.49-46.77,30.174-77.447,30.174l0,0
	c-59.03,0-104.563-43.252-110.612-95.055l45.363-130.884h74.846L255.534,370.522z"/>
<path style="fill:#DD6A37;" d="M205.913,133.565c0,30.736-24.917,55.652-55.652,55.652s-55.652-24.917-55.652-55.652
	s24.917-55.652,55.652-55.652S205.913,102.83,205.913,133.565z"/>
<path style="fill:#F77E41;" d="M200.636,43.739l-23.725,47.45c4.228,5.594,6.741,12.561,6.741,20.115
	c0,18.442-14.949,33.391-33.391,33.391s-33.391-14.949-33.391-33.391c0-7.554,2.512-14.521,6.742-20.116L99.886,43.739
	c-3.665-7.331-0.695-16.245,6.637-19.91c7.334-3.665,16.245-0.693,19.91,6.637l23.726,47.45c0.035,0,0.068-0.002,0.102-0.002
	c0.034,0,0.068,0.002,0.102,0.002l23.726-47.45c3.665-7.331,12.576-10.302,19.91-6.637C201.33,27.493,204.301,36.408,200.636,43.739
	z"/>
<g>
</g>
<g>
</g>
<g>
</g>
<g>
</g>
<g>
</g>
<g>
</g>
<g>
</g>
<g>
</g>
<g>
</g>
<g>
</g>
<g>
</g>
<g>
</g>
<g>
</g>
<g>
</g>
<g>
</g>
</svg>
